<svg width="32" height="32" viewBox="0 0 32 32" fill="none" xmlns="http://www.w3.org/2000/svg">
<g clip-path="url(#clip0_562_1751)">
<circle cx="16" cy="16" r="15" fill="#EDEDED"/>
<path d="M16 0C7.164 0 0 7.164 0 16C0 24.836 7.164 32 16 32C24.836 32 32 24.836 32 16C31.99 7.168 24.832 0.01 16 0ZM16 30C8.268 30 2 23.732 2 16C2 8.268 8.268 2 16 2C23.732 2 30 8.268 30 16C29.99 23.728 23.728 29.99 16 30Z" fill="#ABABAB"/>
<path d="M22.0601 9.94C21.7881 9.668 21.4141 9.5 21.0001 9.5C20.5861 9.5 20.2121 9.668 19.9401 9.94L16.0001 13.878L12.0601 9.94C11.7921 9.69 11.4341 9.538 11.0381 9.538C10.2101 9.538 9.53811 10.21 9.53811 11.038C9.53811 11.434 9.69211 11.794 9.94211 12.062L13.8801 16.002L9.94211 19.942C9.64811 20.216 9.46411 20.606 9.46411 21.04C9.46411 21.868 10.1361 22.54 10.9641 22.54C11.3961 22.54 11.7861 22.356 12.0601 22.064L16.0001 18.126L19.9401 22.064C20.2081 22.314 20.5661 22.466 20.9621 22.466C21.7901 22.466 22.4621 21.794 22.4621 20.966C22.4621 20.57 22.3081 20.21 22.0581 19.942L18.1201 16.002L22.0581 12.062C22.3301 11.79 22.4981 11.416 22.4981 11.002C22.4981 10.588 22.3301 10.214 22.0581 9.942L22.0601 9.94Z" fill="#ABABAB"/>
</g>
<defs>
<clipPath id="clip0_562_1751">
<rect width="32" height="32" fill="white"/>
</clipPath>
</defs>
</svg>
